<mxfile host="app.diagrams.net" agent="Mozilla/5.0 (X11; Linux x86_64) AppleWebKit/537.36 (KHTML, like Gecko) Chrome/132.0.0.0 Safari/537.36" version="26.2.14">
  <diagram name="Page-1" id="seHRogNDZQaI1e7ZAWpB">
    <mxGraphModel dx="1426" dy="791" grid="1" gridSize="10" guides="1" tooltips="1" connect="1" arrows="1" fold="1" page="1" pageScale="1" pageWidth="850" pageHeight="1100" math="0" shadow="0">
      <root>
        <mxCell id="0" />
        <mxCell id="1" parent="0" />
        <mxCell id="WM52SfR1Ulj_I4Flve7S-1" style="rounded=0;orthogonalLoop=1;jettySize=auto;html=1;exitX=0;exitY=0.5;exitDx=0;exitDy=0;edgeStyle=orthogonalEdgeStyle;strokeWidth=2;" edge="1" parent="1" source="WM52SfR1Ulj_I4Flve7S-3" target="WM52SfR1Ulj_I4Flve7S-5">
          <mxGeometry relative="1" as="geometry" />
        </mxCell>
        <mxCell id="WM52SfR1Ulj_I4Flve7S-2" style="edgeStyle=orthogonalEdgeStyle;rounded=0;orthogonalLoop=1;jettySize=auto;html=1;exitX=1;exitY=0.5;exitDx=0;exitDy=0;strokeWidth=2;" edge="1" parent="1" source="WM52SfR1Ulj_I4Flve7S-3" target="WM52SfR1Ulj_I4Flve7S-7">
          <mxGeometry relative="1" as="geometry" />
        </mxCell>
        <mxCell id="WM52SfR1Ulj_I4Flve7S-3" value="&lt;font&gt;&lt;span&gt;CESNET Data&lt;/span&gt;&lt;/font&gt;" style="shape=document;whiteSpace=wrap;html=1;strokeWidth=3;fontSize=15;fontStyle=0;fillColor=#f5f5f5;fontColor=#333333;strokeColor=#666666;" vertex="1" parent="1">
          <mxGeometry x="240" y="90" width="120" height="60" as="geometry" />
        </mxCell>
        <mxCell id="WM52SfR1Ulj_I4Flve7S-4" style="edgeStyle=orthogonalEdgeStyle;rounded=0;orthogonalLoop=1;jettySize=auto;html=1;exitX=0.5;exitY=1;exitDx=0;exitDy=0;entryX=0.5;entryY=0;entryDx=0;entryDy=0;strokeWidth=2;" edge="1" parent="1" source="WM52SfR1Ulj_I4Flve7S-5">
          <mxGeometry relative="1" as="geometry">
            <mxPoint x="190" y="280" as="targetPoint" />
          </mxGeometry>
        </mxCell>
        <mxCell id="WM52SfR1Ulj_I4Flve7S-5" value="Domain Intersection&lt;div&gt;Threshold = 10&lt;/div&gt;" style="rounded=1;whiteSpace=wrap;html=1;fillColor=#bbdefb;fontSize=15;fontStyle=0" vertex="1" parent="1">
          <mxGeometry x="100" y="180" width="180" height="60" as="geometry" />
        </mxCell>
        <mxCell id="WM52SfR1Ulj_I4Flve7S-6" style="edgeStyle=orthogonalEdgeStyle;rounded=0;orthogonalLoop=1;jettySize=auto;html=1;exitX=0.5;exitY=1;exitDx=0;exitDy=0;strokeWidth=2;entryX=0.5;entryY=0;entryDx=0;entryDy=0;" edge="1" parent="1" source="WM52SfR1Ulj_I4Flve7S-7" target="WM52SfR1Ulj_I4Flve7S-26">
          <mxGeometry relative="1" as="geometry" />
        </mxCell>
        <mxCell id="WM52SfR1Ulj_I4Flve7S-7" value="Subsample + Suffix Reduction" style="rounded=1;whiteSpace=wrap;html=1;fillColor=#bbdefb;fontSize=15;fontStyle=0" vertex="1" parent="1">
          <mxGeometry x="340" y="180" width="160" height="60" as="geometry" />
        </mxCell>
        <mxCell id="WM52SfR1Ulj_I4Flve7S-8" style="edgeStyle=orthogonalEdgeStyle;rounded=0;orthogonalLoop=1;jettySize=auto;html=1;entryX=0.5;entryY=0;entryDx=0;entryDy=0;strokeWidth=2;" edge="1" parent="1" target="WM52SfR1Ulj_I4Flve7S-11">
          <mxGeometry relative="1" as="geometry">
            <mxPoint x="190" y="370" as="sourcePoint" />
          </mxGeometry>
        </mxCell>
        <mxCell id="WM52SfR1Ulj_I4Flve7S-9" style="edgeStyle=orthogonalEdgeStyle;rounded=0;orthogonalLoop=1;jettySize=auto;html=1;exitX=0.25;exitY=1;exitDx=0;exitDy=0;entryX=0.5;entryY=0;entryDx=0;entryDy=0;strokeWidth=2;" edge="1" parent="1" source="WM52SfR1Ulj_I4Flve7S-11" target="WM52SfR1Ulj_I4Flve7S-18">
          <mxGeometry relative="1" as="geometry" />
        </mxCell>
        <mxCell id="WM52SfR1Ulj_I4Flve7S-10" style="edgeStyle=orthogonalEdgeStyle;rounded=0;orthogonalLoop=1;jettySize=auto;html=1;exitX=0.75;exitY=1;exitDx=0;exitDy=0;strokeWidth=2;entryX=0.5;entryY=0;entryDx=0;entryDy=0;" edge="1" parent="1" source="WM52SfR1Ulj_I4Flve7S-11" target="WM52SfR1Ulj_I4Flve7S-18">
          <mxGeometry relative="1" as="geometry">
            <mxPoint x="190" y="660" as="targetPoint" />
          </mxGeometry>
        </mxCell>
        <mxCell id="WM52SfR1Ulj_I4Flve7S-11" value="Domain Collector" style="rounded=1;whiteSpace=wrap;html=1;fillColor=#a5d6a7;fontSize=15;fontStyle=0" vertex="1" parent="1">
          <mxGeometry x="130" y="490" width="120" height="40" as="geometry" />
        </mxCell>
        <mxCell id="WM52SfR1Ulj_I4Flve7S-12" style="edgeStyle=orthogonalEdgeStyle;rounded=0;orthogonalLoop=1;jettySize=auto;html=1;exitX=0.5;exitY=1;exitDx=0;exitDy=0;strokeWidth=2;" edge="1" parent="1" source="WM52SfR1Ulj_I4Flve7S-14" target="WM52SfR1Ulj_I4Flve7S-16">
          <mxGeometry relative="1" as="geometry" />
        </mxCell>
        <mxCell id="WM52SfR1Ulj_I4Flve7S-13" style="edgeStyle=orthogonalEdgeStyle;rounded=0;orthogonalLoop=1;jettySize=auto;html=1;exitX=1;exitY=0.5;exitDx=0;exitDy=0;strokeWidth=2;" edge="1" parent="1" source="WM52SfR1Ulj_I4Flve7S-14" target="WM52SfR1Ulj_I4Flve7S-24">
          <mxGeometry relative="1" as="geometry" />
        </mxCell>
        <mxCell id="WM52SfR1Ulj_I4Flve7S-14" value="VirusTotal" style="rounded=1;whiteSpace=wrap;html=1;fillColor=#64b5f6;fontSize=15;fontStyle=0" vertex="1" parent="1">
          <mxGeometry x="360" y="400" width="120" height="60" as="geometry" />
        </mxCell>
        <mxCell id="WM52SfR1Ulj_I4Flve7S-15" style="edgeStyle=orthogonalEdgeStyle;rounded=0;orthogonalLoop=1;jettySize=auto;html=1;exitX=0;exitY=0.5;exitDx=0;exitDy=0;entryX=1;entryY=0.5;entryDx=0;entryDy=0;strokeWidth=2;" edge="1" parent="1" source="WM52SfR1Ulj_I4Flve7S-16" target="WM52SfR1Ulj_I4Flve7S-11">
          <mxGeometry relative="1" as="geometry" />
        </mxCell>
        <mxCell id="WM52SfR1Ulj_I4Flve7S-16" value="Benign Domains" style="rounded=1;whiteSpace=wrap;html=1;fillColor=#a5d6a7;fontSize=15;fontStyle=0" vertex="1" parent="1">
          <mxGeometry x="360" y="490" width="120" height="40" as="geometry" />
        </mxCell>
        <mxCell id="WM52SfR1Ulj_I4Flve7S-17" style="edgeStyle=orthogonalEdgeStyle;rounded=0;orthogonalLoop=1;jettySize=auto;html=1;strokeWidth=2;" edge="1" parent="1" source="WM52SfR1Ulj_I4Flve7S-18" target="WM52SfR1Ulj_I4Flve7S-19">
          <mxGeometry relative="1" as="geometry" />
        </mxCell>
        <mxCell id="WM52SfR1Ulj_I4Flve7S-18" value="Union" style="rounded=1;whiteSpace=wrap;html=1;fillColor=#c5e1a5;fontSize=15;fontStyle=0;strokeWidth=1;" vertex="1" parent="1">
          <mxGeometry x="140" y="620" width="100" height="40" as="geometry" />
        </mxCell>
        <mxCell id="WM52SfR1Ulj_I4Flve7S-19" value="MONGO&lt;div&gt;Ground-truth&lt;/div&gt;&lt;div&gt;Benign Collection&lt;br&gt;&lt;br&gt;&lt;/div&gt;" style="shape=cylinder;whiteSpace=wrap;html=1;fillColor=#c8e6c9;fontSize=15;fontStyle=0;verticalAlign=bottom;" vertex="1" parent="1">
          <mxGeometry x="560" y="580" width="200" height="120" as="geometry" />
        </mxCell>
        <mxCell id="WM52SfR1Ulj_I4Flve7S-20" value="&lt;font style=&quot;font-size: 15px;&quot;&gt;&lt;b&gt;~&lt;/b&gt;&lt;b&gt;16 thousands&lt;/b&gt;&lt;/font&gt;" style="text;html=1;align=center;verticalAlign=middle;resizable=0;points=[];autosize=1;strokeColor=none;fillColor=none;" vertex="1" parent="1">
          <mxGeometry x="120" y="340" width="130" height="30" as="geometry" />
        </mxCell>
        <mxCell id="WM52SfR1Ulj_I4Flve7S-21" style="edgeStyle=orthogonalEdgeStyle;rounded=0;orthogonalLoop=1;jettySize=auto;html=1;strokeWidth=2;" edge="1" parent="1" source="WM52SfR1Ulj_I4Flve7S-22" target="WM52SfR1Ulj_I4Flve7S-14">
          <mxGeometry relative="1" as="geometry" />
        </mxCell>
        <mxCell id="WM52SfR1Ulj_I4Flve7S-22" value="&lt;font style=&quot;font-size: 15px;&quot;&gt;&lt;b&gt;~&lt;/b&gt;&lt;b&gt;513 thousands&lt;/b&gt;&lt;/font&gt;" style="text;html=1;align=center;verticalAlign=middle;resizable=0;points=[];autosize=1;strokeColor=none;fillColor=none;" vertex="1" parent="1">
          <mxGeometry x="350" y="340" width="140" height="30" as="geometry" />
        </mxCell>
        <mxCell id="WM52SfR1Ulj_I4Flve7S-23" value="&lt;font style=&quot;font-size: 15px;&quot;&gt;&lt;b&gt;~480 thousands&lt;/b&gt;&lt;/font&gt;" style="text;html=1;align=center;verticalAlign=middle;resizable=0;points=[];autosize=1;strokeColor=none;fillColor=none;" vertex="1" parent="1">
          <mxGeometry x="595" y="550" width="140" height="30" as="geometry" />
        </mxCell>
        <mxCell id="WM52SfR1Ulj_I4Flve7S-24" value="&lt;div&gt;NOT&lt;br&gt;Benign&lt;br&gt;&lt;/div&gt;" style="shape=cylinder;whiteSpace=wrap;html=1;fillColor=#f8cecc;fontSize=15;fontStyle=0;verticalAlign=bottom;strokeColor=#b85450;" vertex="1" parent="1">
          <mxGeometry x="630" y="400" width="80" height="60" as="geometry" />
        </mxCell>
        <mxCell id="WM52SfR1Ulj_I4Flve7S-25" value="&lt;font style=&quot;font-size: 15px;&quot;&gt;&lt;b&gt;~&lt;/b&gt;&lt;b&gt;50 thousands&lt;/b&gt;&lt;/font&gt;" style="text;html=1;align=center;verticalAlign=middle;resizable=0;points=[];autosize=1;strokeColor=none;fillColor=none;" vertex="1" parent="1">
          <mxGeometry x="605" y="370" width="130" height="30" as="geometry" />
        </mxCell>
        <mxCell id="WM52SfR1Ulj_I4Flve7S-26" value="&lt;span style=&quot;font-size: 15px;&quot;&gt;-&lt;/span&gt;" style="rounded=1;whiteSpace=wrap;html=1;fillColor=#7EA6E0;strokeColor=#6c8ebf;" vertex="1" parent="1">
          <mxGeometry x="360" y="280" width="120" height="60" as="geometry" />
        </mxCell>
        <mxCell id="WM52SfR1Ulj_I4Flve7S-27" value="&lt;span style=&quot;font-size: 15px;&quot;&gt;Intersection&lt;/span&gt;" style="rounded=1;whiteSpace=wrap;html=1;fillColor=#d5e8d4;strokeColor=#82b366;" vertex="1" parent="1">
          <mxGeometry x="130" y="280" width="120" height="60" as="geometry" />
        </mxCell>
      </root>
    </mxGraphModel>
  </diagram>
</mxfile>
